<svg xmlns="http://www.w3.org/2000/svg" id="Component_8_1" width="128.479" height="31.787" data-name="Component 8 – 1" viewBox="0 0 128.479 31.787">
    <path id="Path_1180" fill="#171717" fill-rule="evenodd" d="M1405.388 268.97a2.152 2.152 0 0 1 2.281 2.038 2.28 2.28 0 0 1-.2.949l-3.462 7.952-2.428 5.576-.362.806c-1.583 3.393-3.381 5.517-6.8 5.7l-.4.012a2 2 0 0 1-2-2.155 1.955 1.955 0 0 1 1.744-2.078l.242-.019c1.5-.066 2.321-.932 3.649-3.857a.758.758 0 0 0 .04-.275 1.016 1.016 0 0 0-.054-.364l-.054-.152-3.18-7.425c-.7-1.621-1.288-3.031-1.556-3.758a2.286 2.286 0 0 1-.161-.851 2.184 2.184 0 0 1 2.24-2.1 2.088 2.088 0 0 1 1.972 1.335l1.918 4.948c.51 1.328.966 2.459 1.288 3.2l.3-.653c.765-1.8 1.972-4.811 2.9-7.428a2.133 2.133 0 0 1 2.083-1.401zm-20.554-3.888l.215.008a2.088 2.088 0 0 1 2.026 2.381l-.013 1.013-.04.78h1.838a1.982 1.982 0 0 1 .241 3.947l-.241.013h-1.851l-.067 3.483c-.013.593-.013 1.183-.013 1.732v.6c.04 1.935.282 2.008 1.167 2.008l.188-.008.51-.054.148-.021c.027 0 .067-.005.094-.005a1.9 1.9 0 0 1 1.945 1.893v.17c-.067.708-.55 1.984-3.22 1.984-2.724 0-3.958-1.308-4.521-2.406a7.045 7.045 0 0 1-.63-3.231l.067-5.669v-.482h-.778a1.962 1.962 0 0 1-2-2.01 1.9 1.9 0 0 1 1.744-1.937l.255-.013h.778l.027-.73v-.42c0-.231 0-.453-.013-.664l-.013-.3V267a1.978 1.978 0 0 1 2.157-1.918zm-36.682 3.659c4.709 0 7.218 3.358 7.218 5.783 0 1.849-1.382 3.086-3.515 3.149l-1.248.023c-.443 0-1.047.005-1.946.005h-3.944a3.34 3.34 0 0 0 3.515 3.236 4.634 4.634 0 0 0 3.515-1.593 2.043 2.043 0 0 1 1.489-.66 2.246 2.246 0 0 1 2.254 2.127 1.947 1.947 0 0 1-.644 1.452l-.375.365a8.45 8.45 0 0 1-6.266 2.239 7.684 7.684 0 0 1-7.916-7.975 7.836 7.836 0 0 1 7.863-8.151zm27.987 0a1.98 1.98 0 0 1 2.187 1.834c0 1.093-2.147 8.273-3.207 11.333a3.551 3.551 0 0 1-3.26 2.493l-.174-.007a3.1 3.1 0 0 1-2.818-2.584l-.174-.694c-.322-1.3-.832-3.551-1.234-5.589l-.2 1.03c-.416 2.07-.9 4.139-1.221 5.262a3.425 3.425 0 0 1-3.234 2.61 3.321 3.321 0 0 1-3.18-2.624l-.751-2.962-1.7-6.637c-.107-.425-.2-.81-.282-1.142a1.4 1.4 0 0 1-.054-.429 2.285 2.285 0 0 1 4.36-.445l.174.747c.47 1.944 1.154 5.182 1.61 7.618.3-1.413.671-3.087.993-4.562l.684-3.072a2.7 2.7 0 0 1 2.75-2.149 2.937 2.937 0 0 1 2.911 2.092l1.006 4.324c.255 1.127.51 2.289.711 3.331l1.073-4.246c.389-1.617.751-3.118.953-4.021a1.976 1.976 0 0 1 2.078-1.509zm-40.586-.26a2.144 2.144 0 0 1 2.241 1.772l.013.3-.054 2.962c0 .922-.013 1.948-.013 3.005l.013 1.48c0 .77.013 1.587.027 2.445l.027 1.837a2.274 2.274 0 0 1-4.535 0l.04-8.423c0-1.328 0-2.475-.04-3.254a2 2 0 0 1 .564-1.477 2.432 2.432 0 0 1 1.718-.645zm-28.43-.348c4.709 0 7.218 3.358 7.218 5.783 0 1.762-1.248 2.966-3.22 3.133l-.778.03-2.71.015h-3.945a3.34 3.34 0 0 0 3.515 3.236 4.656 4.656 0 0 0 3.515-1.593 2.038 2.038 0 0 1 1.489-.66 2.246 2.246 0 0 1 2.254 2.127 1.947 1.947 0 0 1-.644 1.452 8.447 8.447 0 0 1-6.641 2.6 7.684 7.684 0 0 1-7.916-7.975 7.828 7.828 0 0 1 7.864-8.145zm21.024.377a2.224 2.224 0 0 1 2.308 2.038c0 1.213-4.548 11.686-4.6 11.789a3.164 3.164 0 0 1-2.8 1.92 2.861 2.861 0 0 1-2.656-1.928l-3.9-9.506a7.045 7.045 0 0 1-.684-2.127l-.013-.119a2.229 2.229 0 0 1 4.32-.593l1.851 4.982c.4 1.087.805 2.192 1.127 3.144l.577-1.585 2.093-5.675c.121-.343.228-.648.322-.9a2.122 2.122 0 0 1 2.056-1.437zm-42.518-8.3h.738l1.02.028c.282.012.483.024.59.031a8.993 8.993 0 0 1 5.742 2.19 5.832 5.832 0 0 1 1.825 4.264 6.186 6.186 0 0 1-4.334 5.937 18.623 18.623 0 0 1 2.16 3.011l.309.506c.282.486.564.945.859 1.4.711 1.128 1.261 1.464 1.878 1.57l.161.021a2.32 2.32 0 0 1 2.147 2.326 2.363 2.363 0 0 1-2.589 2.332l-.228-.008c-1.127-.063-3.448-.631-5.38-3.928l-1.234-2.074c-1.248-2.072-2.63-4.232-3.448-4.256l-1.181-.024-.483-.005c-.081 0-.255 0-.376.013l.027 3.007.054 4.64a3.2 3.2 0 0 1 .013.334 2.305 2.305 0 0 1-2.442 2.214 2.153 2.153 0 0 1-2.254-1.823l-.013-.244.04-1.721c.027-1.44.04-3 .04-4.6l.027-10.281c0-.168 0-.334.013-.527.09-4.083 3.811-4.317 6.32-4.33zm62.549 11.9a3.537 3.537 0 0 0-3.381 2.259c0 .2.2.229 1.838.233h2.63c.523 0 1.02-.009 1.382-.023a.556.556 0 0 0 .537-.57c0-.359-.563-1.891-3.005-1.891zm-41.028-.605a3.537 3.537 0 0 0-3.381 2.259c0 .2.188.229 1.811.233h2.656c.523 0 1.02-.009 1.382-.023a.556.556 0 0 0 .537-.572c.001-.357-.563-1.889-3.004-1.889zm-20.394-7.163h-.657c-1.771 0-2.12.17-2.2.777l-.013.119c-.013.231-.027.627-.027 1.106l-.013 2.615c0 .223-.013.444-.013.66a5.583 5.583 0 0 0 .805.058l1.1.008c.885 0 1.717-.039 2.053-.058a3.063 3.063 0 0 0 3.019-2.818c0-1.093-.845-2.308-3.22-2.438-.229-.012-.511-.019-.833-.022zm48.77-3.645a2.641 2.641 0 1 1 0 5.275 2.641 2.641 0 1 1 0-5.275z" data-name="Path 1180" transform="translate(-1279.19 -260.213)" />
</svg>
