<svg xmlns="http://www.w3.org/2000/svg" id="icon_review_rate_full_copy_4" width="10" height="10" viewBox="0 0 10 10">
    <defs>
        <clipPath id="clip-path">
            <path id="Mask" d="M5 8.446L2.249 9.962a.306.306 0 0 1-.423-.138.342.342 0 0 1-.031-.208l.525-3.21L.095 4.132a.339.339 0 0 1-.006-.464.308.308 0 0 1 .179-.1L3.344 3.1 4.719.183a.307.307 0 0 1 .42-.149.321.321 0 0 1 .142.149L6.656 3.1l3.076.468a.326.326 0 0 1 .268.376.334.334 0 0 1-.091.188L7.68 6.406l.525 3.211A.327.327 0 0 1 7.95 10a.3.3 0 0 1-.2-.033z" class="cls-1"/>
        </clipPath>
        <style>
            .cls-1{fill:#fc0}
        </style>
    </defs>
    <g id="empty_star">
        <path id="Mask-2" d="M5 8.446L2.249 9.962a.306.306 0 0 1-.423-.138.342.342 0 0 1-.031-.208l.525-3.21L.095 4.132a.339.339 0 0 1-.006-.464.308.308 0 0 1 .179-.1L3.344 3.1 4.719.183a.307.307 0 0 1 .42-.149.321.321 0 0 1 .142.149L6.656 3.1l3.076.468a.326.326 0 0 1 .268.376.334.334 0 0 1-.091.188L7.68 6.406l.525 3.211A.327.327 0 0 1 7.95 10a.3.3 0 0 1-.2-.033z" class="cls-1"/>
        <g id="empty_star-2" clip-path="url(#clip-path)">
            <path id="Rectangle" fill="#ececec" d="M0 0H10V10H0z"/>
        </g>
    </g>
</svg>
